<svg width="167" height="167" viewBox="0 0 167 167" fill="none" xmlns="http://www.w3.org/2000/svg">
<rect width="167" height="167" rx="83.5" fill="#111111"/>
<g clip-path="url(#clip0_183_8)">
<path fill-rule="evenodd" clip-rule="evenodd" d="M95.66 54.9163C84.8211 54.9163 76.0344 63.7029 76.0344 74.5419C76.0344 85.3808 84.8211 94.1675 95.66 94.1675C106.499 94.1675 115.286 85.3808 115.286 74.5419C115.286 63.7029 106.499 54.9163 95.66 54.9163ZM57.1182 74.5419C57.1182 53.2558 74.3739 36 95.66 36C116.946 36 134.202 53.2558 134.202 74.5419C134.202 95.828 116.946 113.084 95.66 113.084C74.3739 113.084 57.1182 95.828 57.1182 74.5419Z" fill="#FFFFE3"/>
<path d="M49.0788 132C57.9589 132 65.1576 124.801 65.1576 115.921C65.1576 107.041 57.9589 99.8424 49.0788 99.8424C40.1987 99.8424 33 107.041 33 115.921C33 124.801 40.1987 132 49.0788 132Z" fill="#FFFFE3"/>
</g>
<defs>
<clipPath id="clip0_183_8">
<rect width="101.202" height="96" fill="white" transform="translate(33 36)"/>
</clipPath>
</defs>
</svg>
