<svg width="124" height="124" viewBox="0 0 124 124" fill="none" xmlns="http://www.w3.org/2000/svg">
<rect width="124" height="124" rx="62" fill="#111111"/>
<g clip-path="url(#clip0_183_8)">
<path fill-rule="evenodd" clip-rule="evenodd" d="M71.6113 37.5807C62.6837 37.5807 55.4464 44.818 55.4464 53.7456C55.4464 62.6733 62.6837 69.9106 71.6113 69.9106C80.539 69.9106 87.7763 62.6733 87.7763 53.7456C87.7763 44.818 80.539 37.5807 71.6113 37.5807ZM39.8657 53.7456C39.8657 36.213 54.0787 22 71.6113 22C89.144 22 103.357 36.213 103.357 53.7456C103.357 71.2782 89.144 85.4912 71.6113 85.4912C54.0787 85.4912 39.8657 71.2782 39.8657 53.7456Z" fill="#FFFFE3"/>
<path d="M33.2436 101.072C40.5578 101.072 46.4871 95.1426 46.4871 87.8284C46.4871 80.5142 40.5578 74.5848 33.2436 74.5848C25.9293 74.5848 20 80.5142 20 87.8284C20 95.1426 25.9293 101.072 33.2436 101.072Z" fill="#FFFFE3"/>
</g>
<defs>
<clipPath id="clip0_183_8">
<rect width="83.3566" height="79.0719" fill="white" transform="translate(20 22)"/>
</clipPath>
</defs>
</svg>
